<?xml version="1.0" encoding="UTF-8"?>
<svg id="a" data-name="Layer 1" xmlns="http://www.w3.org/2000/svg" xmlns:xlink="http://www.w3.org/1999/xlink" viewBox="0 0 595.28 179.6">
  <defs>
    <style>
      .c {
        fill: none;
      }

      .c, .d {
        stroke-width: 0px;
      }

      .e {
        clip-path: url(#b);
      }

      .d {
        fill: #231f20;
        fill-rule: evenodd;
      }
    </style>
    <clipPath id="b">
      <rect class="c" width="595.28" height="179.46"/>
    </clipPath>
  </defs>
  <g class="e">
    <path class="d" d="M89.44,0c-22.55,0-44.27,8.5-60.85,23.79C12.02,39.09,1.81,60.06,0,82.54l48.1,19.9c4.21-2.89,9.2-4.43,14.3-4.42h1.42l21.38-31v-.45c.02-6.69,2.03-13.22,5.76-18.78,3.73-5.55,9.03-9.87,15.22-12.42,6.19-2.54,12.99-3.2,19.55-1.88,6.56,1.32,12.58,4.55,17.3,9.29,4.72,4.74,7.93,10.77,9.23,17.34,1.3,6.56.62,13.36-1.95,19.54-2.57,6.18-6.91,11.46-12.47,15.17-5.56,3.71-12.11,5.7-18.8,5.7h-.77l-30.43,21.77v1.2c.02,6.31-2.32,12.4-6.55,17.08-4.23,4.68-10.05,7.62-16.33,8.25-6.28.63-12.57-1.11-17.64-4.87-5.07-3.76-8.56-9.27-9.79-15.46L3.16,114.32c4.55,16.06,13.49,30.54,25.82,41.8,12.33,11.26,27.55,18.86,43.96,21.94,16.41,3.08,33.35,1.52,48.92-4.5,15.57-6.02,29.16-16.27,39.22-29.58,10.07-13.32,16.22-29.18,17.77-45.8,1.55-16.62-1.58-33.35-9.01-48.3-7.44-14.95-18.9-27.52-33.09-36.31C122.56,4.78,106.19.12,89.5.12l-.06-.12ZM56.25,136.17l-11.03-4.56c1.6,3.33,4.14,6.13,7.3,8.04,3.16,1.92,6.81,2.87,10.51,2.75,3.69-.12,7.27-1.32,10.3-3.44,3.03-2.12,5.37-5.08,6.75-8.51,1.38-3.43,1.72-7.19,1-10.81-.72-3.63-2.49-6.96-5.07-9.6-2.59-2.64-5.89-4.47-9.5-5.27-3.61-.8-7.37-.53-10.83.78l11.38,4.71c3.44,1.43,6.17,4.17,7.59,7.61,1.42,3.44,1.41,7.31-.02,10.75-1.43,3.44-4.17,6.17-7.61,7.59-3.44,1.42-7.31,1.41-10.75-.02ZM137.9,54.08c2.48,3.71,3.8,8.08,3.79,12.54-.01,5.97-2.39,11.7-6.61,15.92-4.22,4.22-9.95,6.6-15.92,6.61-4.46,0-8.83-1.32-12.54-3.79-3.71-2.48-6.61-6-8.32-10.12-1.71-4.12-2.16-8.66-1.29-13.04.87-4.38,3.02-8.4,6.17-11.55,3.16-3.16,7.18-5.3,11.55-6.17,4.38-.87,8.91-.42,13.04,1.29,4.12,1.71,7.65,4.6,10.12,8.32ZM105.09,57.21c-1.86,2.79-2.85,6.06-2.85,9.41l-.1-.04c0,2.24.43,4.45,1.29,6.52.86,2.07,2.11,3.94,3.69,5.52,1.58,1.58,3.47,2.83,5.53,3.68,2.07.85,4.29,1.28,6.52,1.26,3.35,0,6.62-.99,9.41-2.85,2.79-1.86,4.96-4.51,6.24-7.6,1.28-3.09,1.62-6.5.96-9.79-.65-3.29-2.27-6.3-4.64-8.67-2.37-2.37-5.39-3.98-8.67-4.64-3.29-.65-6.69-.32-9.79.96-3.09,1.28-5.74,3.45-7.6,6.24ZM275,61.4l-6.08,10.57c-4.85-3.27-10.54-5.07-16.39-5.17-6.27,0-10.14,2.58-10.14,7.22s4.93,6.45,12.66,9.08h0c1.4.48,2.89.98,4.46,1.55,10.99,3.89,17.3,8.46,17.3,18.54,0,13.77-10.83,21.5-26.37,21.5-8.33.03-16.53-2.12-23.77-6.23l4.38-11.72c5.76,3.04,12.15,4.69,18.66,4.81,8.22,0,12.17-3.02,12.17-7.51,0-4.75-5.1-6.43-13.5-9.18h0s0,0,0,0c-.66-.22-1.34-.44-2.05-.67-10.97-3.65-18.56-8.46-18.56-19.62,0-12.56,10.14-19.78,24.54-19.78,8.07-.23,16.01,2.09,22.7,6.61ZM322,123.55v-55.46h20.51v-12.17h-55.21v12.17h20.51v55.46h14.2ZM372.33,68.1v15.23h27.1v12.17h-27.1v15.86h31.44v12.17h-45.6V55.93h45.6v12.17h-31.44ZM430.89,123.53l4.46-13.12,26.39-.02,4.59,13.12h15.33l-26.06-67.59h-14.2l-25.36,67.61h14.85ZM439.21,99.13l9.23-27.06,9.43,27.06h-18.66ZM554.36,82.07l-18.5,39.49h-7.99l-18.26-39.15v41.12h-13.57V55.93h13.53l22.72,48.78,21.97-48.78h13.65v67.59h-13.55v-41.44ZM593.68,69.67c1.03-1.54,1.59-3.35,1.59-5.2.04-1.24-.18-2.48-.63-3.63-.46-1.15-1.14-2.2-2.02-3.08-.87-.88-1.92-1.57-3.07-2.03-1.15-.46-2.39-.68-3.63-.65-1.85,0-3.67.54-5.21,1.57-1.54,1.03-2.75,2.49-3.46,4.2-.71,1.71-.9,3.59-.55,5.41.36,1.82,1.25,3.49,2.56,4.8,1.31,1.31,2.97,2.21,4.79,2.58,1.82.37,3.7.18,5.42-.52,1.71-.71,3.18-1.9,4.21-3.44ZM579.49,68.77c-.87-1.27-1.33-2.77-1.35-4.31-.04-1.04.13-2.08.5-3.05.37-.97.95-1.85,1.68-2.59.73-.74,1.61-1.32,2.57-1.7.96-.38,2-.56,3.04-.53,1.54,0,3.04.46,4.32,1.31,1.28.85,2.28,2.06,2.87,3.48.59,1.42.75,2.98.46,4.49-.3,1.51-1.03,2.9-2.11,3.99-1.08,1.09-2.46,1.84-3.97,2.15-1.5.31-3.07.17-4.49-.41-1.42-.58-2.65-1.56-3.51-2.83ZM589.29,62.33c0-1.38-.81-2.68-3.22-2.68l-3.31-.02v9.31h1.48v-3.61h1.89l1.82,3.61h1.85l-2.17-4.06c.5-.22.92-.58,1.21-1.03.3-.45.45-.98.45-1.53ZM585.92,64h-1.6l-.04-2.92h1.64c1.26,0,1.7.55,1.7,1.4,0,.22-.05.43-.14.62-.09.2-.22.37-.38.51-.16.14-.35.25-.55.32-.21.07-.42.09-.64.07Z"/>
  </g>
</svg>